<svg width="380" height="380" viewBox="0 0 380 380" fill="none" xmlns="http://www.w3.org/2000/svg">
<mask id="mask0_3_2" style="mask-type:alpha" maskUnits="userSpaceOnUse" x="0" y="0" width="380" height="380">
<path d="M190 380C294.934 380 380 294.934 380 190C380 85.0659 294.934 0 190 0C85.0659 0 0 85.0659 0 190C0 294.934 85.0659 380 190 380Z" fill="#45C3EB"/>
</mask>
<g mask="url(#mask0_3_2)">
<path d="M313.889 -112.234L-208.604 167.704L-19.5322 520.599L502.961 240.662L313.889 -112.234Z" fill="#45E5A2"/>
</g>
<mask id="mask1_3_2" style="mask-type:alpha" maskUnits="userSpaceOnUse" x="0" y="0" width="380" height="380">
<path d="M190 380C294.934 380 380 294.934 380 190C380 85.0659 294.934 0 190 0C85.0659 0 0 85.0659 0 190C0 294.934 85.0659 380 190 380Z" fill="#8A5D62"/>
</mask>
<g mask="url(#mask1_3_2)">
<path d="M245 359.5C230.6 339.5 219.333 300.834 218 281.5L149.5 252L121 359.5H245Z" fill="#F9C9B6" stroke="black" stroke-width="4"/>
<mask id="mask2_3_2" style="mask-type:alpha" maskUnits="userSpaceOnUse" x="121" y="252" width="124" height="118">
<path d="M245 369.5C230.6 349.5 219.333 300.834 218 281.5L149.5 252L121 369.5H245Z" fill="#F9C9B6"/>
</mask>
<g mask="url(#mask2_3_2)">
<g style="mix-blend-mode:multiply">
<g style="mix-blend-mode:multiply">
<path d="M215 304C247.585 304 274 279.823 274 250C274 220.177 247.585 196 215 196C182.415 196 156 220.177 156 250C156 279.823 182.415 304 215 304Z" fill="black"/>
</g>
</g>
</g>
<mask id="mask3_3_2" style="mask-type:alpha" maskUnits="userSpaceOnUse" x="104" y="61" width="173" height="226">
<path fill-rule="evenodd" clip-rule="evenodd" d="M274.887 190.917C274.86 190.802 274.832 190.686 274.804 190.57C274.777 190.454 274.749 190.339 274.72 190.223L258.324 121.786C258.307 121.718 258.291 121.651 258.275 121.583C258.259 121.515 258.242 121.447 258.226 121.379L258.153 121.076H258.152C247.934 79.6315 206.157 54.1479 164.583 64.1087C123.009 74.0696 97.3164 115.718 106.989 157.293L106.987 157.294L123.979 228.212L123.993 228.208C134.595 269.113 176.063 294.149 217.33 284.262C258.598 274.375 284.217 233.265 275.132 191.997L275.145 191.994L274.887 190.917Z" fill="white"/>
</mask>
<g mask="url(#mask3_3_2)">
<path fill-rule="evenodd" clip-rule="evenodd" d="M274.887 190.917C274.86 190.802 274.832 190.686 274.804 190.57C274.777 190.454 274.749 190.339 274.72 190.223L258.324 121.786C258.307 121.718 258.291 121.651 258.275 121.583C258.259 121.515 258.242 121.447 258.226 121.379L258.153 121.076H258.152C247.934 79.6315 206.157 54.1479 164.583 64.1087C123.009 74.0696 97.3164 115.718 106.989 157.293L106.987 157.294L123.979 228.212L123.993 228.208C134.595 269.113 176.063 294.149 217.33 284.262C258.598 274.375 284.217 233.265 275.132 191.997L275.145 191.994L274.887 190.917Z" fill="#F9C9B6"/>
<path d="M274.887 190.917L270.993 191.832L270.995 191.841L270.997 191.849L274.887 190.917ZM274.72 190.223L270.831 191.155L270.833 191.164L270.835 191.173L274.72 190.223ZM258.324 121.786L254.431 122.708L254.434 122.718L258.324 121.786ZM258.226 121.379L254.336 122.311L254.339 122.322L258.226 121.379ZM258.153 121.076L262.043 120.144L261.112 116.256L257.223 117.186L258.153 121.076ZM258.152 121.076L254.268 122.034L255.219 125.89L259.082 124.967L258.152 121.076ZM164.583 64.1087L163.651 60.2188L164.583 64.1087ZM106.989 157.293L107.923 161.183L111.785 160.255L110.885 156.387L106.989 157.293ZM106.987 157.294L106.053 153.405L102.166 154.338L103.097 158.226L106.987 157.294ZM123.979 228.212L120.089 229.144L121.021 233.035L124.912 232.101L123.979 228.212ZM123.993 228.208L127.865 227.205L126.879 223.402L123.059 224.319L123.993 228.208ZM217.33 284.262L216.398 280.372L217.33 284.262ZM275.132 191.997L274.201 188.107L270.382 189.021L271.226 192.857L275.132 191.997ZM275.145 191.994L276.076 195.884L279.967 194.952L279.035 191.062L275.145 191.994ZM278.781 190.003C278.752 189.881 278.723 189.76 278.694 189.638L270.915 191.502C270.941 191.612 270.967 191.722 270.993 191.832L278.781 190.003ZM278.694 189.638C278.665 189.517 278.636 189.395 278.606 189.274L270.835 191.173C270.861 191.282 270.888 191.392 270.915 191.502L278.694 189.638ZM254.434 122.718L270.831 191.155L278.61 189.291L262.213 120.854L254.434 122.718ZM262.216 120.864C262.199 120.794 262.182 120.722 262.165 120.651L254.385 122.515C254.401 122.579 254.416 122.643 254.431 122.708L262.216 120.864ZM262.165 120.651C262.148 120.58 262.131 120.509 262.113 120.437L254.339 122.322C254.354 122.386 254.37 122.45 254.385 122.515L262.165 120.651ZM254.263 122.008L254.336 122.311L262.116 120.447L262.043 120.144L254.263 122.008ZM259.082 124.967L259.084 124.966L257.223 117.186H257.222L259.082 124.967ZM262.036 120.119C251.292 76.5404 207.365 49.7453 163.651 60.2188L165.515 67.9986C204.949 58.5505 244.576 82.7225 254.268 122.034L262.036 120.119ZM163.651 60.2188C119.937 70.6923 92.9225 114.484 103.093 158.2L110.885 156.387C101.71 116.952 126.081 77.4468 165.515 67.9986L163.651 60.2188ZM107.921 161.183H107.923L106.055 153.404L106.053 153.405L107.921 161.183ZM127.869 227.28L110.877 156.362L103.097 158.226L120.089 229.144L127.869 227.28ZM123.059 224.319L123.045 224.322L124.912 232.101L124.926 232.098L123.059 224.319ZM120.121 229.212C131.269 272.223 174.87 298.548 218.262 288.152L216.398 280.372C177.255 289.751 137.921 266.003 127.865 227.205L120.121 229.212ZM218.262 288.152C261.654 277.756 288.592 234.53 279.039 191.137L271.226 192.857C279.843 232 255.542 270.994 216.398 280.372L218.262 288.152ZM274.213 188.104L274.201 188.107L276.064 195.887L276.076 195.884L274.213 188.104ZM270.997 191.849L271.255 192.926L279.035 191.062L278.777 189.985L270.997 191.849Z" fill="black"/>
</g>
<path d="M188.771 359.577C188.771 359.577 188.771 359.577 190 357.999L188.771 359.577L190.493 360.918L191.679 359.087V359.086L191.681 359.083L191.69 359.069L191.731 359.007C191.742 358.99 191.755 358.97 191.769 358.948C191.803 358.897 191.847 358.831 191.9 358.752C192.05 358.527 192.275 358.194 192.57 357.769C193.158 356.918 194.023 355.701 195.118 354.246C197.312 351.331 200.416 347.481 204.071 343.718C207.737 339.944 211.898 336.317 216.198 333.793C220.514 331.259 224.777 329.949 228.733 330.482C271.171 336.204 302.402 355.001 322.674 383H49.3745C65.6742 353.658 88.8579 334.982 126.445 326.412C128.046 326.047 130.224 326.158 132.947 326.791C135.642 327.418 138.715 328.519 142.028 329.975C148.655 332.888 156.052 337.136 163.004 341.536C169.945 345.929 176.39 350.442 181.104 353.859C183.459 355.567 185.379 356.999 186.709 358.003C187.374 358.505 187.891 358.9 188.241 359.169C188.416 359.303 188.55 359.406 188.639 359.475L188.739 359.552L188.764 359.572L188.77 359.576L188.771 359.577Z" fill="#001339"/>
<path d="M188.771 359.577C188.771 359.577 188.771 359.577 190 357.999L188.771 359.577ZM188.771 359.577L190.493 360.918L191.679 359.087V359.086L191.681 359.083L191.69 359.069L191.731 359.007C191.742 358.99 191.755 358.97 191.769 358.948C191.803 358.897 191.847 358.831 191.9 358.752C192.05 358.527 192.275 358.194 192.57 357.769C193.158 356.918 194.023 355.701 195.118 354.246C197.312 351.331 200.416 347.481 204.071 343.718C207.737 339.944 211.898 336.317 216.198 333.793C220.514 331.259 224.777 329.949 228.733 330.482C271.171 336.204 302.402 355.001 322.674 383H49.3745C65.6742 353.658 88.8579 334.982 126.445 326.412C128.046 326.047 130.224 326.158 132.947 326.791C135.642 327.418 138.715 328.519 142.028 329.975C148.655 332.888 156.052 337.136 163.004 341.536C169.945 345.929 176.39 350.442 181.104 353.859C183.459 355.567 185.379 356.999 186.709 358.003C187.374 358.505 187.891 358.9 188.241 359.169C188.416 359.303 188.55 359.406 188.639 359.475L188.739 359.552L188.764 359.572L188.77 359.576L188.771 359.577Z" stroke="black" stroke-width="4"/>
<path d="M114.613 329.085L119.779 309.853C119.989 309.074 120.996 308.854 121.54 309.449C136.403 325.714 155.16 325.076 161.385 324.33C162.23 324.228 162.892 325.153 162.495 325.906L149.338 350.859C149.136 351.241 148.724 351.452 148.3 351.364C144.352 350.541 124.677 345.732 114.729 329.867C114.583 329.635 114.542 329.35 114.613 329.085Z" fill="#9BA4B4" stroke="black" stroke-width="4"/>
<path d="M245.195 328.981L233.614 309.499C233.221 308.837 232.252 308.848 231.833 309.494C226.096 318.33 216.202 322.4 212.742 323.602C212.119 323.819 211.834 324.558 212.17 325.125L225.673 347.94C225.874 348.281 226.255 348.465 226.635 348.357C228.77 347.749 236.095 344.685 245.182 330.021C245.377 329.706 245.384 329.3 245.195 328.981Z" fill="#9BA4B4" stroke="black" stroke-width="4"/>
<path d="M171.5 346.5L162.5 325L155.5 340L171.5 346.5Z" fill="black" stroke="black" stroke-width="4" stroke-linejoin="round"/>
<path d="M203 345.5L212 324L219 339L203 345.5Z" fill="black" stroke="black" stroke-width="4" stroke-linejoin="round"/>
<path d="M132.5 306L120.5 309L130.5 315.5L132.5 306Z" fill="black" stroke="black" stroke-width="4" stroke-linejoin="round"/>
<path d="M222 306L233 309L226 315.5L222 306Z" fill="black" stroke="black" stroke-width="4" stroke-linejoin="round"/>
<path d="M221.5 183C221.5 197 228.5 208 228.5 208C228.5 208 225 214 215 212" stroke="black" stroke-width="4"/>
<path d="M199.781 125.959C184.029 120.752 162.419 131.02 149.487 139.422C148.512 140.056 149.264 141.455 150.365 141.079C171.626 133.825 192.755 132.146 203.108 132.251C203.982 132.26 204.474 131.225 203.905 130.561L200.216 126.253C200.1 126.117 199.95 126.015 199.781 125.959Z" fill="black" stroke="black"/>
<path d="M217.487 124.886C221.654 117.569 238.607 118.885 251.384 121.419C252.55 121.651 252.333 123.376 251.145 123.431C236.245 124.116 225.278 128.072 220.387 130.688C219.818 130.992 219.1 130.725 218.898 130.113L217.422 125.637C217.34 125.388 217.357 125.114 217.487 124.886Z" fill="black" stroke="black"/>
<path d="M269.178 78.3965C260.856 118.294 162.5 123.896 142.678 123.896C90.6557 129.823 115.626 192.262 125.178 223.396C117.678 224.396 118.678 233.396 89.6782 161.896C66.4782 104.696 132.184 69.8337 181 57.9995C229.816 46.1653 248.5 29.502 248.5 29.502C269.178 38 274.117 54.7185 269.178 78.3965Z" fill="black"/>
<path d="M264.135 151.947L248.316 98.5069L258.354 89.3644C269.11 126.452 269.602 147.988 264.135 151.947Z" fill="black"/>
<path d="M139 197C133.4 169.8 119.334 174.667 110 176L100 132L140.585 123.506C141.337 123.266 142.141 123.095 143 123L140.585 123.506C122.434 129.299 134.957 175.796 150 195L139 197Z" fill="black"/>
<path d="M83.9895 94.3632C92.8349 89.9091 103.281 92.4873 107.399 94.3331L95.6281 109.213C98.6633 104.357 89.1337 97.2897 83.9895 94.3632Z" fill="black"/>
<path d="M69 111.5C80.6 104.7 91.8333 107 96 109L91.5 124.5C90.3 116.1 76 112.333 69 111.5Z" fill="black"/>
<path d="M236 93C242.833 93.1667 257.4 95.6 261 104" stroke="black" stroke-width="20"/>
<path d="M246.393 146.758C249.842 120.489 225.66 108.87 213.138 106.344C209.649 92.2413 207.846 74.0249 229.031 96.7576C250.215 119.49 249.472 138.128 246.393 146.758Z" fill="black" stroke="black"/>
<path d="M248.294 56.2557C237.876 63.3202 194.645 81.3133 181.137 85.4974C174.815 87.4542 162.625 91.3304 155.236 93.6262C155.015 93.7116 154.812 93.8236 154.654 93.9478C154.496 94.072 154.39 94.2026 154.349 94.3228C154.308 94.4431 154.335 94.5474 154.427 94.6224C154.518 94.6974 154.668 94.7396 154.86 94.7436C189.177 92.4712 156.944 127.96 150.628 117.114C143.099 109.046 125.502 119.394 123.487 120.808C121.068 122.535 119.186 124.374 117.993 126.174C116.493 128.34 118.22 136.36 131.438 140.39C131.594 140.446 131.675 140.545 131.669 140.673C131.663 140.8 131.569 140.948 131.403 141.092L128.146 143.749C128.041 143.83 127.916 143.907 127.778 143.974C127.64 144.042 127.492 144.098 127.343 144.141C127.194 144.183 127.046 144.211 126.909 144.222C126.771 144.233 126.646 144.228 126.541 144.206C64.2762 128.735 97.6274 108.78 102.695 106.022C102.871 105.921 103.016 105.806 103.114 105.691C103.212 105.575 103.26 105.462 103.252 105.365C101.914 95.1529 111.305 79.3869 140.65 66.3096C156.385 59.2124 173.131 54.5395 183.454 52.6892L183.532 52.6606C195.975 50.0303 203.887 43.7636 212.81 35.414C212.933 35.2994 213.088 35.1888 213.265 35.0889C213.442 34.9891 213.638 34.9021 213.841 34.8334C214.043 34.7646 214.248 34.7156 214.443 34.6893C214.637 34.6629 214.818 34.6598 214.972 34.6802C220.418 35.4177 220.808 37.2127 219.751 39.2731C219.713 39.3823 219.731 39.4787 219.802 39.5523C219.873 39.6258 219.994 39.6736 220.154 39.6906C220.313 39.7076 220.505 39.6932 220.707 39.6489C220.91 39.6046 221.117 39.532 221.305 39.439C230.331 34.3837 252.019 28.5494 259.126 23.1258C259.263 23.0287 259.427 22.9412 259.604 22.8705C259.78 22.7998 259.964 22.748 260.14 22.7195C260.315 22.691 260.478 22.6866 260.613 22.7067C260.749 22.7268 260.853 22.7708 260.918 22.835C268.482 33.1129 262.709 46.6222 248.294 56.2557Z" fill="#050504"/>
<path d="M128.5 179.176C126.17 178.408 123.655 178 121.08 178C110.587 178 102.08 184.5 103.08 196.5C104.122 209 111.587 213.5 122.08 213.5C123.248 213.5 124.391 213.397 125.5 213.201C126.711 212.987 127.881 212.661 129 212.235" stroke="black" stroke-width="8"/>
<path d="M129.5 212.036C127.22 212.979 124.713 213.5 122.08 213.5C111.587 213.5 104.122 209 103.08 196.5C102.08 184.5 110.587 178 121.08 178C124.217 178 127.267 178.606 130 179.73L129.5 212.036Z" fill="#F9C9B6"/>
<path d="M125.5 186.5C121.5 184.667 112.7 183.7 109.5 194.5" stroke="black" stroke-width="4"/>
<path d="M115 187C117.167 188.833 121.3 194.5 120.5 202.5" stroke="black" stroke-width="4"/>
<path d="M249.822 191.48C264.172 192.01 276.234 180.806 276.763 166.457C277.293 152.107 266.089 140.045 251.74 139.516C237.39 138.986 225.328 150.19 224.799 164.539C224.269 178.889 235.473 190.951 249.822 191.48Z" stroke="black" stroke-width="4"/>
<path d="M182.536 198.003C196.886 198.533 208.948 187.329 209.477 172.98C210.007 158.63 198.803 146.568 184.454 146.039C170.104 145.509 158.042 156.713 157.513 171.062C156.983 185.412 168.187 197.474 182.536 198.003Z" stroke="black" stroke-width="4"/>
<path d="M225.54 171.571C225.618 169.451 224.851 167.386 223.407 165.832C221.963 164.277 219.961 163.36 217.84 163.282C215.72 163.203 213.655 163.971 212.101 165.415C210.546 166.859 209.629 168.861 209.551 170.981" stroke="black" stroke-width="4"/>
<path d="M157.938 173.08L127.756 177.47" stroke="black" stroke-width="4"/>
</g>
</svg>
